<svg height="512pt" viewBox="0 0 512.00054 512" width="512pt" xmlns="http://www.w3.org/2000/svg"><path d="m124.542969 318.613281h64.15625c4.507812 0 8.472656-5.933593 8.472656-12.40625 0-6.476562-3.964844-12.046875-8.472656-12.046875h-47.214844v-1.621094c0-16.363281 55.6875-29.128906 55.6875-68.152343 0-24.09375-21.085937-37.21875-41.992187-37.21875-20.546876 0-40.730469 12.585937-40.730469 34.523437 0 11.328125 5.410156 14.566406 12.617187 14.566406 9.191406 0 14.777344-5.035156 14.777344-10.25 0-9.890624 6.308594-13.488281 13.515625-13.488281 10.09375 0 13.695313 7.015625 13.695313 12.769531 0 22.835938-56.765626 39.019532-56.765626 67.25v17.445313c-.003906 5.214844 7.207032 8.628906 12.253907 8.628906zm0 0"/><path d="m213.929688 290.921875h42.171874v19.0625c0 5.753906 7.027344 8.628906 14.054688 8.628906 7.03125 0 14.058594-2.875 14.058594-8.628906v-19.0625h7.75c4.324218 0 8.652344-6.472656 8.652344-12.945313 0-6.476562-2.886719-12.949218-8.652344-12.949218h-7.75v-12.585938c0-5.933594-7.027344-8.453125-14.058594-8.453125-7.027344 0-14.054688 2.519531-14.054688 8.453125v12.585938h-15.5l31.898438-63.835938c.542969-1.257812.902344-2.339844.902344-3.417968 0-6.472657-9.191406-10.609376-14.058594-10.609376-4.503906 0-9.007812 1.980469-11.710938 7.195313l-41.632812 81.457031c-1.082031 1.976563-1.441406 3.957032-1.441406 5.394532 0 6.292968 4.144531 9.710937 9.371094 9.710937zm0 0"/><path d="m329.445312 184.109375c-8.109374 0-13.875 3.414063-13.875 8.449219v117.421875c0 4.316406 5.765626 8.632812 13.875 8.632812 7.570313 0 14.058594-4.316406 14.058594-8.632812v-40.277344c0-8.453125 6.125-13.488281 12.074219-13.488281 7.027344 0 12.976563 6.652344 12.976563 13.488281v40.277344c0 5.753906 7.386718 8.632812 13.875 8.632812 7.027343 0 14.058593-2.878906 14.058593-8.632812v-40.277344c0-20.679687-14.238281-37.761719-30.636719-37.761719-11.175781 0-19.105468 6.652344-22.347656 13.664063v-53.046875c0-5.035156-6.488281-8.449219-14.058594-8.449219zm0 0"/><path d="m512 255.753906c0-68.3125-26.664062-132.539062-75.074219-180.84375-48.414062-48.308594-112.78125-74.910156-181.25-74.910156-7.910156 0-14.378906 6.109375-14.960937 13.859375-.035156.332031-.054688.695313-.054688 1.109375v.015625.007813.007812 40.355469c0 8.277343 6.722656 14.984375 15.015625 14.984375 8.296875 0 15.019531-6.707032 15.019531-14.984375v-24.882813c54.789063 3.558594 105.808594 26.535156 144.988282 65.628906 39.183594 39.09375 62.210937 90 65.777344 144.667969h-24.925782c-8.292968 0-15.019531 6.707031-15.019531 14.984375s6.726563 14.988282 15.019531 14.988282h24.925782c-3.566407 54.667968-26.59375 105.574218-65.777344 144.667968-39.179688 39.089844-90.195313 62.066406-144.988282 65.628906v-24.882812c0-8.277344-6.722656-14.984375-15.019531-14.984375-8.292969 0-15.015625 6.707031-15.015625 14.984375v25.308594c-39.628906-2.722656-77.679687-15.800782-110.960937-38.183594-38.59375-25.953125-67.84375-62.675781-84.589844-106.199219-8.222656-21.371093-13.109375-43.75-14.589844-66.339843h24.300781c8.296876 0 15.019532-6.710938 15.019532-14.988282s-6.722656-14.984375-15.019532-14.984375h-24.257812c.507812-7.414062 1.386719-14.808593 2.636719-22.164062 4.636719-27.253907 14.277343-53.429688 28.269531-77.140625l2.53125 12.988281c1.394531 7.15625 7.683594 12.128906 14.726562 12.128906.949219 0 1.914063-.09375 2.882813-.28125 8.144531-1.578125 13.460937-9.445312 11.878906-17.570312l-9.304687-47.746094c-1.582032-8.125-9.464844-13.429687-17.609375-11.851563l-47.851563 9.28125c-8.144531 1.578126-13.460937 9.441407-11.878906 17.566407s9.472656 13.429687 17.609375 11.851562l11.519531-2.234375c-16.050781 27.019532-27.09375 56.882813-32.386718 87.992188-7.660157 44.988281-2.996094 91.40625 13.480468 134.234375 18.964844 49.296875 52.105469 90.898437 95.84375 120.308593 42.652344 28.683594 92.261719 43.839844 143.5 43.839844h.300782c1.335937-.003906 2.65625.0625 3.949218 0 66.632813-1.238281 129.007813-28.222656 176.265625-75.375 48.410157-48.304687 75.074219-112.53125 75.074219-180.84375zm0 0"/></svg>